<svg width="512" height="512" xmlns="http://www.w3.org/2000/svg" class="svg-inline--fa fa-check-circle fa-w-16">
 <!-- Created with Method Draw - http://github.com/duopixel/Method-Draw/ -->

 <g>
  <title>background</title>
  <rect fill="#ffffff" id="canvas_background" height="514" width="514" y="-1" x="-1"/>
 </g>
 <g>
  <title>Layer 1</title>
  <g stroke="null" id="svg_5">
   <path stroke="null" id="svg_4" d="m471.55551,257.99998c0,120.70522 -97.17873,218.55552 -217.05552,218.55552s-217.05552,-97.8503 -217.05552,-218.55552s97.17873,-218.55552 217.05552,-218.55552s217.05552,97.8503 217.05552,218.55552zm-242.1622,115.72338l161.0412,-162.1541c5.4684,-5.50619 5.4684,-14.43436 0,-19.94055l-19.80369,-19.94055c-5.4684,-5.50707 -14.33529,-5.50707 -19.80457,0l-131.33522,132.24195l-61.31731,-61.74105c-5.4684,-5.50619 -14.33529,-5.50619 -19.80457,0l-19.80369,19.94055c-5.4684,5.50619 -5.4684,14.43436 0,19.94055l91.02328,91.65231c5.46927,5.50707 14.33529,5.50707 19.80457,0.00088z" fill="#0fc40f"/>
  </g>
 </g>
</svg>